<svg width="60" height="60" viewBox="0 0 60 60" fill="none" xmlns="http://www.w3.org/2000/svg">
<rect width="60" height="60" rx="30" fill="#CEACF7"/>
<ellipse cx="8.63883" cy="30.7044" rx="6.66667" ry="4.88263" fill="#D67EA0" fill-opacity="0.5"/>
<ellipse cx="51.5495" cy="30.7044" rx="6.66667" ry="4.88263" fill="#D67EA0" fill-opacity="0.5"/>
<path d="M21.5494 22.2886C21.5494 23.3387 20.6981 24.19 19.648 24.19C18.5979 24.19 17.7466 23.3387 17.7466 22.2886C17.7466 21.2385 18.5979 20.3872 19.648 20.3872C20.6981 20.3872 21.5494 21.2385 21.5494 22.2886Z" fill="black"/>
<path d="M42.2536 22.2886C42.2536 23.3387 41.4023 24.19 40.3522 24.19C39.3021 24.19 38.4508 23.3387 38.4508 22.2886C38.4508 21.2385 39.3021 20.3872 40.3522 20.3872C41.4023 20.3872 42.2536 21.2385 42.2536 22.2886Z" fill="black"/>
<path d="M31.0931 33.4359C31.0931 32.6926 30.7117 32.3209 29.9487 32.3209C29.6113 32.3209 29.2029 32.426 28.7237 32.6363C28.2493 32.8417 27.9754 32.9444 27.9021 32.9444C27.6087 32.9444 27.4619 32.8124 27.4619 32.5483C27.4619 32.1424 27.7554 31.7976 28.3422 31.514C28.9291 31.2303 29.5991 31.0885 30.3522 31.0885C31.8878 31.0885 32.6581 31.6851 32.6629 32.8784C32.6629 33.568 32.4306 34.2257 31.9661 34.8517C31.9465 34.8762 31.856 34.9862 31.6946 35.1818C31.5381 35.3774 31.4599 35.4923 31.4599 35.5266C31.4599 35.6195 31.6066 35.7638 31.9 35.9594C32.1984 36.155 32.4649 36.4289 32.6996 36.781C32.9344 37.1331 33.0517 37.5635 33.0517 38.0721C33.0517 39.0599 32.6898 39.8375 31.9661 40.4048C31.2423 40.9721 30.3791 41.2557 29.3766 41.2557C28.7212 41.2557 28.1442 41.1213 27.6453 40.8523C27.1465 40.5833 26.8971 40.2777 26.8971 39.9353C26.8971 39.593 27.0585 39.4218 27.3813 39.4218C27.5524 39.4218 27.8654 39.5245 28.3202 39.7299C28.775 39.9304 29.2274 40.0307 29.6773 40.0307C30.1321 40.0307 30.5405 39.8693 30.9024 39.5465C31.2643 39.2189 31.4452 38.7934 31.4452 38.2701C31.4452 37.3165 30.9097 36.7125 29.8387 36.4582C29.5306 36.3849 29.3448 36.3335 29.2812 36.3042C29.0709 36.2064 28.9658 36.0425 28.9658 35.8127C28.9658 35.6611 29.1736 35.4826 29.5893 35.2772C30.0099 35.0718 30.3278 34.8517 30.5429 34.617C30.9097 34.2111 31.0931 33.8174 31.0931 33.4359Z" fill="black"/>
</svg>
