<svg width="60" height="60" viewBox="0 0 60 60" fill="none" xmlns="http://www.w3.org/2000/svg">
<rect width="60.0016" height="60.0016" rx="30.0008" fill="#CEACF7"/>
<path d="M19.977 24.81C19.977 26.3099 18.7611 27.5258 17.2612 27.5258C15.7613 27.5258 14.5454 26.3099 14.5454 24.81C14.5454 23.3101 15.7613 22.0942 17.2612 22.0942C18.7611 22.0942 19.977 23.3101 19.977 24.81Z" fill="black"/>
<path d="M45.4559 24.81C45.4559 26.3099 44.24 27.5258 42.7401 27.5258C41.2402 27.5258 40.0243 26.3099 40.0243 24.81C40.0243 23.3101 41.2402 22.0942 42.7401 22.0942C44.24 22.0942 45.4559 23.3101 45.4559 24.81Z" fill="black"/>
<path d="M18.3766 35.9182C18.3766 35.4569 18.7505 35.0829 19.2119 35.0829H40.9298C41.3911 35.0829 41.7651 35.4569 41.7651 35.9182C41.7651 36.3796 41.3911 36.7536 40.9298 36.7536H19.2119C18.7505 36.7536 18.3766 36.3796 18.3766 35.9182Z" fill="black"/>
<path d="M12.1162 34.7498H47.1719C47.3742 34.7498 47.538 34.9137 47.5381 35.116C47.5381 40.906 42.8447 45.6003 37.0547 45.6003H22.2344C16.4443 45.6003 11.75 40.9061 11.75 35.116C11.7501 34.9138 11.914 34.7499 12.1162 34.7498Z" fill="white" stroke="black" stroke-width="1.5"/>
<rect x="35" y="35" width="5.22513" height="4.98763" fill="black"/>
</svg>
