<svg width="60" height="60" viewBox="0 0 60 60" fill="none" xmlns="http://www.w3.org/2000/svg">
<rect width="60" height="60" rx="30" fill="#CEACF7"/>
<path d="M21.5494 22.2891C21.5494 23.3392 20.6981 24.1905 19.648 24.1905C18.5979 24.1905 17.7466 23.3392 17.7466 22.2891C17.7466 21.239 18.5979 20.3877 19.648 20.3877C20.6981 20.3877 21.5494 21.239 21.5494 22.2891Z" fill="black"/>
<path d="M42.2536 22.2891C42.2536 23.3392 41.4023 24.1905 40.3522 24.1905C39.3021 24.1905 38.4508 23.3392 38.4508 22.2891C38.4508 21.239 39.3021 20.3877 40.3522 20.3877C41.4023 20.3877 42.2536 21.239 42.2536 22.2891Z" fill="black"/>
<path d="M37.3709 30.9511C38.084 30.9512 38.6718 31.5324 38.5659 32.2377C38.2924 34.0589 37.4432 35.7581 36.1252 37.0762C34.5008 38.7006 32.2974 39.613 30.0001 39.613C27.7028 39.613 25.4994 38.7006 23.875 37.0762C22.5569 35.7581 21.7078 34.0589 21.4343 32.2377C21.3283 31.5324 21.9165 30.9511 22.6297 30.9511C23.3427 30.9512 23.907 31.5356 24.0574 32.2327C24.302 33.3668 24.8683 34.4168 25.7013 35.2499C26.8414 36.39 28.3878 37.0304 30.0001 37.0304C31.6124 37.0304 33.1588 36.39 34.2989 35.2499C35.1319 34.4168 35.6982 33.3668 35.9428 32.2327C36.0932 31.5356 36.6578 30.9511 37.3709 30.9511Z" fill="#231717"/>
<g filter="url(#filter0_d_5449_5048)">
<path d="M1.97217 16.3707L6.89847 19.812M6.89847 19.812C6.89847 25.4126 11.4387 29.9528 17.0393 29.9528C22.64 29.9528 27.1802 25.4126 27.1802 19.812M6.89847 19.812C6.89847 14.2114 11.4387 9.67114 17.0393 9.67114C22.64 9.67114 27.1802 14.2114 27.1802 19.812M27.1802 19.812H33.0025M33.0025 19.812C33.0025 25.4126 37.5427 29.9528 43.1434 29.9528C48.744 29.9528 53.2842 25.4126 53.2842 19.812M33.0025 19.812C33.0025 14.2114 37.5427 9.67114 43.1434 9.67114C48.744 9.67114 53.2842 14.2114 53.2842 19.812M53.2842 19.812L58.2106 16.3378" stroke="url(#paint0_linear_5449_5048)" stroke-width="1.50235" shape-rendering="crispEdges"/>
</g>
<defs>
<filter id="filter0_d_5449_5048" x="1.16641" y="8.91992" width="57.8527" height="22.5354" filterUnits="userSpaceOnUse" color-interpolation-filters="sRGB">
<feFlood flood-opacity="0" result="BackgroundImageFix"/>
<feColorMatrix in="SourceAlpha" type="matrix" values="0 0 0 0 0 0 0 0 0 0 0 0 0 0 0 0 0 0 127 0" result="hardAlpha"/>
<feOffset dy="0.375587"/>
<feGaussianBlur stdDeviation="0.187793"/>
<feComposite in2="hardAlpha" operator="out"/>
<feColorMatrix type="matrix" values="0 0 0 0 0 0 0 0 0 0 0 0 0 0 0 0 0 0 0.25 0"/>
<feBlend mode="normal" in2="BackgroundImageFix" result="effect1_dropShadow_5449_5048"/>
<feBlend mode="normal" in="SourceGraphic" in2="effect1_dropShadow_5449_5048" result="shape"/>
</filter>
<linearGradient id="paint0_linear_5449_5048" x1="30.0914" y1="9.67114" x2="30.0914" y2="29.9528" gradientUnits="userSpaceOnUse">
<stop/>
<stop offset="1" stop-color="#484848"/>
</linearGradient>
</defs>
</svg>
