<svg width="60" height="60" viewBox="0 0 60 60" fill="none" xmlns="http://www.w3.org/2000/svg">
<g clip-path="url(#clip0_5551_16237)">
<rect width="60" height="60" rx="30" fill="#CEACF7"/>
<g filter="url(#filter0_d_5551_16237)">
<path d="M13.0437 15.0679C13.5619 13.4732 15.8179 13.4732 16.3361 15.0679L17.7109 19.299C17.9426 20.0122 18.6072 20.4951 19.3571 20.4951H23.8059C25.4827 20.4951 26.1799 22.6407 24.8233 23.6263L21.2241 26.2413C20.6175 26.682 20.3636 27.4633 20.5953 28.1765L21.9701 32.4076C22.4883 34.0023 20.663 35.3284 19.3065 34.3428L15.7073 31.7278C15.1006 31.2871 14.2792 31.2871 13.6725 31.7278L10.0733 34.3428C8.71675 35.3284 6.89155 34.0023 7.4097 32.4076L8.78448 28.1765C9.0162 27.4633 8.76235 26.682 8.15569 26.2413L4.55647 23.6263C3.19994 22.6407 3.8971 20.4951 5.57387 20.4951H10.0227C10.7726 20.4951 11.4372 20.0122 11.6689 19.299L13.0437 15.0679Z" fill="#FFEEC1"/>
<path d="M13.519 15.2222C13.8876 14.0883 15.4923 14.0883 15.8608 15.2222L17.2349 19.4536C17.5335 20.3728 18.3905 20.9946 19.3569 20.9946H23.8062C24.9984 20.9948 25.4943 22.5213 24.5298 23.2222L20.9302 25.8364C20.1484 26.4044 19.8212 27.4115 20.1196 28.3306L21.4946 32.562C21.8631 33.6961 20.5648 34.6389 19.6001 33.938L16.0015 31.3237C15.2196 30.7556 14.1603 30.7556 13.3784 31.3237L9.77979 33.938C8.81511 34.6389 7.51678 33.6961 7.88525 32.562L9.26025 28.3306C9.55865 27.4115 9.23148 26.4044 8.44971 25.8364L4.8501 23.2222C3.88546 22.5213 4.38142 20.9947 5.57373 20.9946H10.0229C10.9893 20.9945 11.8453 20.3726 12.144 19.4536L13.519 15.2222Z" stroke="#C5A576"/>
</g>
<g filter="url(#filter1_d_5551_16237)">
<path d="M43.4168 15.0679C43.9349 13.4732 46.191 13.4732 46.7091 15.0679L48.0839 19.299C48.3156 20.0122 48.9802 20.4951 49.7301 20.4951H54.179C55.8557 20.4951 56.5529 22.6407 55.1964 23.6263L51.5972 26.2413C50.9905 26.682 50.7366 27.4633 50.9684 28.1765L52.3432 32.4076C52.8613 34.0023 51.0361 35.3284 49.6796 34.3428L46.0803 31.7278C45.4737 31.2871 44.6522 31.2871 44.0455 31.7278L40.4463 34.3428C39.0898 35.3284 37.2646 34.0023 37.7827 32.4076L39.1575 28.1765C39.3892 27.4633 39.1354 26.682 38.5287 26.2413L34.9295 23.6263C33.573 22.6407 34.2701 20.4951 35.9469 20.4951H40.3958C41.1457 20.4951 41.8103 20.0122 42.042 19.299L43.4168 15.0679Z" fill="#FFEEC1"/>
<path d="M43.8921 15.2222C44.2606 14.0883 45.8653 14.0883 46.2339 15.2222L47.6079 19.4536C47.9066 20.3728 48.7635 20.9946 49.73 20.9946H54.1792C55.3714 20.9948 55.8674 22.5213 54.9028 23.2222L51.3032 25.8364C50.5214 26.4044 50.1943 27.4115 50.4927 28.3306L51.8677 32.562C52.2361 33.6961 50.9378 34.6389 49.9731 33.938L46.3745 31.3237C45.5926 30.7556 44.5334 30.7556 43.7515 31.3237L40.1528 33.938C39.1882 34.6389 37.8898 33.6961 38.2583 32.562L39.6333 28.3306C39.9317 27.4115 39.6045 26.4044 38.8228 25.8364L35.2231 23.2222C34.2585 22.5213 34.7545 20.9947 35.9468 20.9946H40.396C41.3623 20.9945 42.2184 20.3726 42.5171 19.4536L43.8921 15.2222Z" stroke="#C5A576"/>
</g>
<path fill-rule="evenodd" clip-rule="evenodd" d="M33.3795 37.1831C33.6965 37.1831 33.9579 37.4419 33.9108 37.7554C33.7891 38.5646 33.4115 39.3201 32.8258 39.9058C32.1039 40.6274 31.1249 41.0326 30.1041 41.0327C29.0832 41.0327 28.1034 40.6277 27.3815 39.9058C26.7958 39.3201 26.4182 38.5646 26.2965 37.7554C26.2495 37.442 26.5109 37.1833 26.8278 37.1831C27.1446 37.1831 27.3956 37.4427 27.4625 37.7524C27.5712 38.2563 27.823 38.7231 28.193 39.0933C28.6997 39.6 29.3875 39.8853 30.1041 39.8853C30.8206 39.8852 31.5076 39.5999 32.0143 39.0933C32.3845 38.723 32.6361 38.2564 32.7448 37.7524C32.8116 37.4428 33.0627 37.1832 33.3795 37.1831Z" fill="#231717"/>
<mask id="path-7-inside-1_5551_16237" fill="white">
<path d="M24.5034 37.0017C24.5034 35.8971 25.3988 35.0017 26.5034 35.0017H33.5034C34.608 35.0017 35.5034 35.8971 35.5034 37.0017V42.5017C35.5034 44.987 33.4887 47.0017 31.0034 47.0017H29.0034C26.5181 47.0017 24.5034 44.987 24.5034 42.5017V37.0017Z"/>
</mask>
<path d="M24.5034 37.0017C24.5034 35.8971 25.3988 35.0017 26.5034 35.0017H33.5034C34.608 35.0017 35.5034 35.8971 35.5034 37.0017V42.5017C35.5034 44.987 33.4887 47.0017 31.0034 47.0017H29.0034C26.5181 47.0017 24.5034 44.987 24.5034 42.5017V37.0017Z" fill="black" stroke="black" stroke-width="11" mask="url(#path-7-inside-1_5551_16237)"/>
<ellipse cx="30.0034" cy="44.5017" rx="3.5" ry="1.5" fill="#E2759F"/>
</g>
<defs>
<filter id="filter0_d_5551_16237" x="3.08867" y="13.1207" width="23.2025" height="22.3117" filterUnits="userSpaceOnUse" color-interpolation-filters="sRGB">
<feFlood flood-opacity="0" result="BackgroundImageFix"/>
<feColorMatrix in="SourceAlpha" type="matrix" values="0 0 0 0 0 0 0 0 0 0 0 0 0 0 0 0 0 0 127 0" result="hardAlpha"/>
<feOffset/>
<feGaussianBlur stdDeviation="0.375587"/>
<feComposite in2="hardAlpha" operator="out"/>
<feColorMatrix type="matrix" values="0 0 0 0 0 0 0 0 0 0 0 0 0 0 0 0 0 0 0.25 0"/>
<feBlend mode="normal" in2="BackgroundImageFix" result="effect1_dropShadow_5551_16237"/>
<feBlend mode="normal" in="SourceGraphic" in2="effect1_dropShadow_5551_16237" result="shape"/>
</filter>
<filter id="filter1_d_5551_16237" x="33.4617" y="13.1207" width="23.2025" height="22.3117" filterUnits="userSpaceOnUse" color-interpolation-filters="sRGB">
<feFlood flood-opacity="0" result="BackgroundImageFix"/>
<feColorMatrix in="SourceAlpha" type="matrix" values="0 0 0 0 0 0 0 0 0 0 0 0 0 0 0 0 0 0 127 0" result="hardAlpha"/>
<feOffset/>
<feGaussianBlur stdDeviation="0.375587"/>
<feComposite in2="hardAlpha" operator="out"/>
<feColorMatrix type="matrix" values="0 0 0 0 0 0 0 0 0 0 0 0 0 0 0 0 0 0 0.25 0"/>
<feBlend mode="normal" in2="BackgroundImageFix" result="effect1_dropShadow_5551_16237"/>
<feBlend mode="normal" in="SourceGraphic" in2="effect1_dropShadow_5551_16237" result="shape"/>
</filter>
<clipPath id="clip0_5551_16237">
<rect width="60" height="60" rx="30" fill="white"/>
</clipPath>
</defs>
</svg>
