<svg width="60" height="60" viewBox="0 0 60 60" fill="none" xmlns="http://www.w3.org/2000/svg">
<rect width="59.9962" height="59.9962" rx="29.9981" fill="#CEACF7"/>
<path d="M31.7417 25.0217H44.5913C44.88 25.0217 45.1145 25.2555 45.1147 25.5442V28.9651C45.1147 32.8023 42.0037 35.9133 38.1665 35.9133C34.3293 35.9133 31.2183 32.8023 31.2183 28.9651V25.5442C31.2185 25.2555 31.453 25.0217 31.7417 25.0217ZM27.8149 17.0881C28.5538 17.0882 29.1528 17.6871 29.1528 18.426C29.1528 19.1649 28.5538 19.7639 27.8149 19.7639C27.076 19.7639 26.4771 19.1649 26.4771 18.426C26.4771 17.6871 27.076 17.0881 27.8149 17.0881ZM48.5181 17.0881C49.2569 17.0883 49.856 17.6872 49.856 18.426C49.8559 19.1648 49.2568 19.7638 48.5181 19.7639C47.7792 19.7639 47.1802 19.1649 47.1802 18.426C47.1802 17.6871 47.7791 17.0881 48.5181 17.0881Z" fill="black" stroke="black" stroke-width="1.12669"/>
</svg>
