<svg width="285" height="22" viewBox="0 0 285 22" fill="none" xmlns="http://www.w3.org/2000/svg">
<path d="M0 18.9999H19V-7.82609e-05H0V18.9999ZM24.2205 17.6699L30.1485 4.27492H31.6495L37.5775 17.6699H35.7725L34.1385 13.8699L34.9555 14.3259H26.8235L27.6405 13.8699L26.0255 17.6699H24.2205ZM30.8705 6.26992L27.9065 13.2809L27.4505 12.8819H34.3285L33.8915 13.2809L30.9085 6.26992H30.8705ZM42.8539 17.8409C41.7266 17.8409 40.8842 17.5496 40.3269 16.9669C39.7696 16.3716 39.4909 15.5229 39.4909 14.4209V9.74692H37.6859V8.41692H39.4909V5.60492H41.2199V8.41692H44.1269V9.74692H41.2199V14.2689C41.2199 14.9656 41.3656 15.4913 41.6569 15.8459C41.9482 16.2006 42.4296 16.3779 43.1009 16.3779C43.3036 16.3779 43.4999 16.3589 43.6899 16.3209C43.8926 16.2703 44.0826 16.2196 44.2599 16.1689L44.5449 17.4609C44.3676 17.5749 44.1142 17.6636 43.7849 17.7269C43.4682 17.8029 43.1579 17.8409 42.8539 17.8409ZM45.8255 17.6699V4.27492H47.5545V10.4309H47.3075C47.5735 9.70892 48.0041 9.16425 48.5995 8.79692C49.2075 8.42959 49.8978 8.24592 50.6705 8.24592C51.4178 8.24592 52.0321 8.38525 52.5135 8.66392C52.9948 8.92992 53.3558 9.33525 53.5965 9.87992C53.8371 10.4246 53.9575 11.1086 53.9575 11.9319V17.6699H52.2285V12.0269C52.2285 11.4823 52.1588 11.0326 52.0195 10.6779C51.8801 10.3233 51.6585 10.0636 51.3545 9.89892C51.0631 9.73425 50.6895 9.65192 50.2335 9.65192C49.7015 9.65192 49.2328 9.76592 48.8275 9.99392C48.4221 10.2219 48.1055 10.5449 47.8775 10.9629C47.6621 11.3809 47.5545 11.8686 47.5545 12.4259V17.6699H45.8255ZM59.6435 17.8409C58.6555 17.8409 57.9145 17.5623 57.4205 17.0049C56.9392 16.4349 56.6985 15.6179 56.6985 14.5539V4.27492H58.4275V14.4209C58.4275 14.8516 58.4845 15.2189 58.5985 15.5229C58.7252 15.8143 58.9025 16.0296 59.1305 16.1689C59.3712 16.3083 59.6689 16.3779 60.0235 16.3779C60.1629 16.3779 60.3022 16.3716 60.4415 16.3589C60.5935 16.3463 60.7329 16.3209 60.8595 16.2829L60.8215 17.6889C60.6189 17.7396 60.4162 17.7776 60.2135 17.8029C60.0235 17.8283 59.8335 17.8409 59.6435 17.8409ZM66.5956 17.8409C65.5949 17.8409 64.7336 17.6509 64.0116 17.2709C63.3023 16.8783 62.7513 16.3273 62.3586 15.6179C61.9659 14.8959 61.7696 14.0473 61.7696 13.0719C61.7696 12.1093 61.9596 11.2669 62.3396 10.5449C62.7323 9.82292 63.2643 9.25925 63.9356 8.85392C64.6196 8.44859 65.3986 8.24592 66.2726 8.24592C67.1213 8.24592 67.8433 8.42959 68.4386 8.79692C69.0466 9.16425 69.5089 9.68992 69.8256 10.3739C70.1549 11.0453 70.3196 11.8559 70.3196 12.8059V13.4329H63.1186V12.3309H69.1796L68.8566 12.5969C68.8566 11.6089 68.6413 10.8489 68.2106 10.3169C67.7799 9.77225 67.1466 9.49992 66.3106 9.49992C65.7026 9.49992 65.1833 9.64559 64.7526 9.93692C64.3219 10.2156 63.9926 10.6146 63.7646 11.1339C63.5366 11.6406 63.4226 12.2296 63.4226 12.9009V13.0149C63.4226 13.7749 63.5429 14.4146 63.7836 14.9339C64.0369 15.4406 64.3979 15.8269 64.8666 16.0929C65.3353 16.3463 65.9116 16.4729 66.5956 16.4729C67.1403 16.4729 67.6659 16.3906 68.1726 16.2259C68.6919 16.0486 69.1796 15.7763 69.6356 15.4089L70.1676 16.6059C69.7496 16.9859 69.2113 17.2899 68.5526 17.5179C67.9066 17.7333 67.2543 17.8409 66.5956 17.8409ZM76.2895 17.8409C75.1621 17.8409 74.3198 17.5496 73.7625 16.9669C73.2051 16.3716 72.9265 15.5229 72.9265 14.4209V9.74692H71.1215V8.41692H72.9265V5.60492H74.6555V8.41692H77.5625V9.74692H74.6555V14.2689C74.6555 14.9656 74.8011 15.4913 75.0925 15.8459C75.3838 16.2006 75.8651 16.3779 76.5365 16.3779C76.7391 16.3779 76.9355 16.3589 77.1255 16.3209C77.3281 16.2703 77.5181 16.2196 77.6955 16.1689L77.9805 17.4609C77.8031 17.5749 77.5498 17.6636 77.2205 17.7269C76.9038 17.8029 76.5935 17.8409 76.2895 17.8409ZM79.09 6.19392V4.33192H81.161V6.19392H79.09ZM79.261 17.6699V8.41692H80.99V17.6699H79.261ZM87.7788 17.8409C86.8415 17.8409 86.0308 17.6446 85.3468 17.2519C84.6628 16.8466 84.1371 16.2829 83.7698 15.5609C83.4025 14.8263 83.2188 13.9649 83.2188 12.9769C83.2188 12.0016 83.4025 11.1593 83.7698 10.4499C84.1371 9.74059 84.6628 9.19592 85.3468 8.81592C86.0308 8.43592 86.8415 8.24592 87.7788 8.24592C88.3615 8.24592 88.9315 8.34725 89.4888 8.54992C90.0588 8.75259 90.5275 9.03759 90.8948 9.40492L90.3248 10.6209C89.9575 10.2916 89.5585 10.0446 89.1278 9.87992C88.6971 9.71525 88.2855 9.63292 87.8928 9.63292C86.9681 9.63292 86.2525 9.92426 85.7458 10.5069C85.2391 11.0896 84.9858 11.9193 84.9858 12.9959C84.9858 14.0726 85.2391 14.9213 85.7458 15.5419C86.2525 16.1499 86.9681 16.4539 87.8928 16.4539C88.2855 16.4539 88.6971 16.3716 89.1278 16.2069C89.5585 16.0423 89.9575 15.7889 90.3248 15.4469L90.8948 16.6819C90.5275 17.0493 90.0525 17.3343 89.4698 17.5369C88.8998 17.7396 88.3361 17.8409 87.7788 17.8409ZM95.7938 17.8409C95.3125 17.8409 94.8375 17.7966 94.3688 17.7079C93.9128 17.6193 93.4885 17.4926 93.0958 17.3279C92.7158 17.1506 92.3802 16.9416 92.0888 16.7009L92.6018 15.5039C92.9058 15.7319 93.2352 15.9283 93.5898 16.0929C93.9445 16.2449 94.3118 16.3589 94.6918 16.4349C95.0718 16.5109 95.4518 16.5489 95.8318 16.5489C96.5285 16.5489 97.0542 16.4223 97.4088 16.1689C97.7635 15.9156 97.9408 15.5799 97.9408 15.1619C97.9408 14.8073 97.8205 14.5349 97.5798 14.3449C97.3518 14.1423 96.9908 13.9903 96.4968 13.8889L94.7298 13.5279C93.9445 13.3506 93.3492 13.0593 92.9438 12.6539C92.5512 12.2359 92.3548 11.7039 92.3548 11.0579C92.3548 10.4879 92.5068 9.99392 92.8108 9.57592C93.1275 9.14525 93.5645 8.81592 94.1218 8.58792C94.6792 8.35992 95.3188 8.24592 96.0408 8.24592C96.4715 8.24592 96.8895 8.29025 97.2948 8.37892C97.7002 8.46759 98.0802 8.59425 98.4348 8.75892C98.7895 8.92359 99.0872 9.13892 99.3278 9.40492L98.7958 10.5829C98.5552 10.3549 98.2828 10.1649 97.9788 10.0129C97.6748 9.86092 97.3582 9.74692 97.0288 9.67092C96.6995 9.58225 96.3702 9.53792 96.0408 9.53792C95.3568 9.53792 94.8375 9.67092 94.4828 9.93692C94.1408 10.2029 93.9698 10.5513 93.9698 10.9819C93.9698 11.3113 94.0712 11.5836 94.2738 11.7989C94.4892 12.0143 94.8248 12.1726 95.2808 12.2739L97.0478 12.6349C97.8712 12.8123 98.4918 13.0973 98.9098 13.4899C99.3278 13.8699 99.5368 14.3893 99.5368 15.0479C99.5368 15.6306 99.3785 16.1309 99.0618 16.5489C98.7578 16.9669 98.3208 17.2899 97.7508 17.5179C97.1935 17.7333 96.5412 17.8409 95.7938 17.8409ZM106.323 18.8859L104.974 18.4869L109.857 3.36292L111.206 3.76192L106.323 18.8859ZM117.396 17.6699V4.27492H122.811C124.255 4.27492 125.364 4.61692 126.136 5.30092C126.922 5.97225 127.314 6.92859 127.314 8.16992C127.314 8.98059 127.137 9.67725 126.782 10.2599C126.428 10.8299 125.915 11.2669 125.243 11.5709C124.572 11.8749 123.761 12.0269 122.811 12.0269L123.001 11.7609H123.419C123.926 11.7609 124.363 11.8876 124.73 12.1409C125.11 12.3943 125.446 12.7996 125.737 13.3569L128.093 17.6699H126.136L123.818 13.3949C123.641 13.0403 123.438 12.7679 123.21 12.5779C122.995 12.3879 122.742 12.2613 122.45 12.1979C122.172 12.1219 121.836 12.0839 121.443 12.0839H119.163V17.6699H117.396ZM119.163 10.7159H122.526C123.54 10.7159 124.3 10.5069 124.806 10.0889C125.313 9.65825 125.566 9.03125 125.566 8.20792C125.566 7.38459 125.313 6.76392 124.806 6.34592C124.3 5.92792 123.54 5.71892 122.526 5.71892H119.163V10.7159ZM134.005 17.8409C133.004 17.8409 132.143 17.6509 131.421 17.2709C130.711 16.8783 130.16 16.3273 129.768 15.6179C129.375 14.8959 129.179 14.0473 129.179 13.0719C129.179 12.1093 129.369 11.2669 129.749 10.5449C130.141 9.82292 130.673 9.25925 131.345 8.85392C132.029 8.44859 132.808 8.24592 133.682 8.24592C134.53 8.24592 135.252 8.42959 135.848 8.79692C136.456 9.16425 136.918 9.68992 137.235 10.3739C137.564 11.0453 137.729 11.8559 137.729 12.8059V13.4329H130.528V12.3309H136.589L136.266 12.5969C136.266 11.6089 136.05 10.8489 135.62 10.3169C135.189 9.77225 134.556 9.49992 133.72 9.49992C133.112 9.49992 132.592 9.64559 132.162 9.93692C131.731 10.2156 131.402 10.6146 131.174 11.1339C130.946 11.6406 130.832 12.2296 130.832 12.9009V13.0149C130.832 13.7749 130.952 14.4146 131.193 14.9339C131.446 15.4406 131.807 15.8269 132.276 16.0929C132.744 16.3463 133.321 16.4729 134.005 16.4729C134.549 16.4729 135.075 16.3906 135.582 16.2259C136.101 16.0486 136.589 15.7763 137.045 15.4089L137.577 16.6059C137.159 16.9859 136.62 17.2899 135.962 17.5179C135.316 17.7333 134.663 17.8409 134.005 17.8409ZM143.888 17.8409C142.951 17.8409 142.14 17.6446 141.456 17.2519C140.772 16.8466 140.247 16.2829 139.879 15.5609C139.512 14.8263 139.328 13.9649 139.328 12.9769C139.328 12.0016 139.512 11.1593 139.879 10.4499C140.247 9.74059 140.772 9.19592 141.456 8.81592C142.14 8.43592 142.951 8.24592 143.888 8.24592C144.471 8.24592 145.041 8.34725 145.598 8.54992C146.168 8.75259 146.637 9.03759 147.004 9.40492L146.434 10.6209C146.067 10.2916 145.668 10.0446 145.237 9.87992C144.807 9.71525 144.395 9.63292 144.002 9.63292C143.078 9.63292 142.362 9.92426 141.855 10.5069C141.349 11.0896 141.095 11.9193 141.095 12.9959C141.095 14.0726 141.349 14.9213 141.855 15.5419C142.362 16.1499 143.078 16.4539 144.002 16.4539C144.395 16.4539 144.807 16.3716 145.237 16.2069C145.668 16.0423 146.067 15.7889 146.434 15.4469L147.004 16.6819C146.637 17.0493 146.162 17.3343 145.579 17.5369C145.009 17.7396 144.446 17.8409 143.888 17.8409ZM148.711 17.6699V8.41692H150.402V10.6209H150.212C150.415 9.86092 150.782 9.29092 151.314 8.91092C151.846 8.51825 152.549 8.29025 153.423 8.22692L154.012 8.16992L154.145 9.67092L153.062 9.76592C152.226 9.85459 151.58 10.1269 151.124 10.5829C150.681 11.0389 150.459 11.6659 150.459 12.4639V17.6699H148.711ZM159.796 17.8409C158.795 17.8409 157.934 17.6509 157.212 17.2709C156.502 16.8783 155.951 16.3273 155.559 15.6179C155.166 14.8959 154.97 14.0473 154.97 13.0719C154.97 12.1093 155.16 11.2669 155.54 10.5449C155.932 9.82292 156.464 9.25925 157.136 8.85392C157.82 8.44859 158.599 8.24592 159.473 8.24592C160.321 8.24592 161.043 8.42959 161.639 8.79692C162.247 9.16425 162.709 9.68992 163.026 10.3739C163.355 11.0453 163.52 11.8559 163.52 12.8059V13.4329H156.319V12.3309H162.38L162.057 12.5969C162.057 11.6089 161.841 10.8489 161.411 10.3169C160.98 9.77225 160.347 9.49992 159.511 9.49992C158.903 9.49992 158.383 9.64559 157.953 9.93692C157.522 10.2156 157.193 10.6146 156.965 11.1339C156.737 11.6406 156.623 12.2296 156.623 12.9009V13.0149C156.623 13.7749 156.743 14.4146 156.984 14.9339C157.237 15.4406 157.598 15.8269 158.067 16.0929C158.535 16.3463 159.112 16.4729 159.796 16.4729C160.34 16.4729 160.866 16.3906 161.373 16.2259C161.892 16.0486 162.38 15.7763 162.836 15.4089L163.368 16.6059C162.95 16.9859 162.411 17.2899 161.753 17.5179C161.107 17.7333 160.454 17.8409 159.796 17.8409ZM168.615 17.8409C167.982 17.8409 167.406 17.7143 166.886 17.4609C166.38 17.2076 165.981 16.8656 165.689 16.4349C165.411 16.0043 165.271 15.5229 165.271 14.9909C165.271 14.3069 165.442 13.7686 165.784 13.3759C166.126 12.9833 166.703 12.7046 167.513 12.5399C168.324 12.3626 169.413 12.2739 170.781 12.2739H171.674V13.3759H170.819C170.085 13.3759 169.47 13.4013 168.976 13.4519C168.482 13.5026 168.09 13.5849 167.798 13.6989C167.507 13.8129 167.298 13.9713 167.171 14.1739C167.045 14.3639 166.981 14.6046 166.981 14.8959C166.981 15.3899 167.152 15.7953 167.494 16.1119C167.849 16.4286 168.33 16.5869 168.938 16.5869C169.42 16.5869 169.844 16.4729 170.211 16.2449C170.579 16.0043 170.87 15.6876 171.085 15.2949C171.301 14.8896 171.408 14.4273 171.408 13.9079V11.7229C171.408 10.9756 171.256 10.4373 170.952 10.1079C170.648 9.76592 170.135 9.59492 169.413 9.59492C168.881 9.59492 168.349 9.67725 167.817 9.84192C167.298 10.0066 166.76 10.2599 166.202 10.6019L165.651 9.36692C165.981 9.13892 166.354 8.94259 166.772 8.77792C167.203 8.60059 167.646 8.46759 168.102 8.37892C168.571 8.29025 169.021 8.24592 169.451 8.24592C170.275 8.24592 170.952 8.37892 171.484 8.64492C172.016 8.89825 172.415 9.29725 172.681 9.84192C172.947 10.3739 173.08 11.0579 173.08 11.8939V17.6699H171.446V15.5609H171.617C171.516 16.0296 171.326 16.4349 171.047 16.7769C170.769 17.1189 170.42 17.3849 170.002 17.5749C169.597 17.7523 169.135 17.8409 168.615 17.8409ZM179.639 17.8409C178.512 17.8409 177.669 17.5496 177.112 16.9669C176.555 16.3716 176.276 15.5229 176.276 14.4209V9.74692H174.471V8.41692H176.276V5.60492H178.005V8.41692H180.912V9.74692H178.005V14.2689C178.005 14.9656 178.151 15.4913 178.442 15.8459C178.733 16.2006 179.215 16.3779 179.886 16.3779C180.089 16.3779 180.285 16.3589 180.475 16.3209C180.678 16.2703 180.868 16.2196 181.045 16.1689L181.33 17.4609C181.153 17.5749 180.899 17.6636 180.57 17.7269C180.253 17.8029 179.943 17.8409 179.639 17.8409ZM182.44 6.19392V4.33192H184.511V6.19392H182.44ZM182.611 17.6699V8.41692H184.34V17.6699H182.611ZM191.052 17.8409C190.14 17.8409 189.349 17.6446 188.677 17.2519C188.006 16.8593 187.487 16.3019 187.119 15.5799C186.752 14.8579 186.568 14.0093 186.568 13.0339C186.568 12.0586 186.752 11.2163 187.119 10.5069C187.487 9.78492 188.006 9.22759 188.677 8.83492C189.349 8.44225 190.14 8.24592 191.052 8.24592C191.964 8.24592 192.756 8.44225 193.427 8.83492C194.099 9.22759 194.618 9.78492 194.985 10.5069C195.353 11.2163 195.536 12.0586 195.536 13.0339C195.536 14.0093 195.353 14.8579 194.985 15.5799C194.618 16.3019 194.099 16.8593 193.427 17.2519C192.756 17.6446 191.964 17.8409 191.052 17.8409ZM191.052 16.4729C191.888 16.4729 192.553 16.1816 193.047 15.5989C193.541 15.0036 193.788 14.1486 193.788 13.0339C193.788 11.9193 193.541 11.0706 193.047 10.4879C192.553 9.90525 191.888 9.61392 191.052 9.61392C190.229 9.61392 189.564 9.90525 189.057 10.4879C188.563 11.0706 188.316 11.9193 188.316 13.0339C188.316 14.1486 188.563 15.0036 189.057 15.5989C189.564 16.1816 190.229 16.4729 191.052 16.4729ZM197.751 17.6699V8.41692H199.442V10.4309H199.233C199.499 9.70892 199.93 9.16425 200.525 8.79692C201.133 8.42959 201.824 8.24592 202.596 8.24592C203.344 8.24592 203.958 8.37892 204.439 8.64492C204.921 8.91092 205.282 9.32259 205.522 9.87992C205.763 10.4246 205.883 11.1086 205.883 11.9319V17.6699H204.154V12.0269C204.154 11.4823 204.085 11.0326 203.945 10.6779C203.806 10.3233 203.584 10.0636 203.28 9.89892C202.989 9.73425 202.615 9.65192 202.159 9.65192C201.627 9.65192 201.159 9.76592 200.753 9.99392C200.348 10.2219 200.031 10.5449 199.803 10.9629C199.588 11.3809 199.48 11.8686 199.48 12.4259V17.6699H197.751ZM211.569 17.8409C210.936 17.8409 210.36 17.7143 209.84 17.4609C209.334 17.2076 208.935 16.8656 208.643 16.4349C208.365 16.0043 208.225 15.5229 208.225 14.9909C208.225 14.3069 208.396 13.7686 208.738 13.3759C209.08 12.9833 209.657 12.7046 210.467 12.5399C211.278 12.3626 212.367 12.2739 213.735 12.2739H214.628V13.3759H213.773C213.039 13.3759 212.424 13.4013 211.93 13.4519C211.436 13.5026 211.044 13.5849 210.752 13.6989C210.461 13.8129 210.252 13.9713 210.125 14.1739C209.999 14.3639 209.935 14.6046 209.935 14.8959C209.935 15.3899 210.106 15.7953 210.448 16.1119C210.803 16.4286 211.284 16.5869 211.892 16.5869C212.374 16.5869 212.798 16.4729 213.165 16.2449C213.533 16.0043 213.824 15.6876 214.039 15.2949C214.255 14.8896 214.362 14.4273 214.362 13.9079V11.7229C214.362 10.9756 214.21 10.4373 213.906 10.1079C213.602 9.76592 213.089 9.59492 212.367 9.59492C211.835 9.59492 211.303 9.67725 210.771 9.84192C210.252 10.0066 209.714 10.2599 209.156 10.6019L208.605 9.36692C208.935 9.13892 209.308 8.94259 209.726 8.77792C210.157 8.60059 210.6 8.46759 211.056 8.37892C211.525 8.29025 211.975 8.24592 212.405 8.24592C213.229 8.24592 213.906 8.37892 214.438 8.64492C214.97 8.89825 215.369 9.29725 215.635 9.84192C215.901 10.3739 216.034 11.0579 216.034 11.8939V17.6699H214.4V15.5609H214.571C214.47 16.0296 214.28 16.4349 214.001 16.7769C213.723 17.1189 213.374 17.3849 212.956 17.5749C212.551 17.7523 212.089 17.8409 211.569 17.8409ZM221.7 17.8409C220.712 17.8409 219.971 17.5623 219.477 17.0049C218.996 16.4349 218.755 15.6179 218.755 14.5539V4.27492H220.484V14.4209C220.484 14.8516 220.541 15.2189 220.655 15.5229C220.782 15.8143 220.959 16.0296 221.187 16.1689C221.428 16.3083 221.725 16.3779 222.08 16.3779C222.219 16.3779 222.359 16.3716 222.498 16.3589C222.65 16.3463 222.789 16.3209 222.916 16.2829L222.878 17.6889C222.675 17.7396 222.473 17.7776 222.27 17.8029C222.08 17.8283 221.89 17.8409 221.7 17.8409ZM234.023 17.8409C233.326 17.8409 232.667 17.7839 232.047 17.6699C231.426 17.5433 230.856 17.3659 230.337 17.1379C229.817 16.8973 229.349 16.6059 228.931 16.2639L229.539 14.8579C229.957 15.1746 230.394 15.4469 230.85 15.6749C231.306 15.8903 231.793 16.0549 232.313 16.1689C232.832 16.2703 233.402 16.3209 234.023 16.3209C235.137 16.3209 235.954 16.1183 236.474 15.7129C237.006 15.3076 237.272 14.7756 237.272 14.1169C237.272 13.7496 237.189 13.4393 237.025 13.1859C236.86 12.9326 236.594 12.7173 236.227 12.5399C235.859 12.3626 235.378 12.2169 234.783 12.1029L232.769 11.6849C231.578 11.4316 230.685 11.0136 230.09 10.4309C229.507 9.84825 229.216 9.06925 229.216 8.09392C229.216 7.29592 229.425 6.59925 229.843 6.00392C230.273 5.39592 230.856 4.92725 231.591 4.59792C232.338 4.26859 233.199 4.10392 234.175 4.10392C234.783 4.10392 235.359 4.16725 235.904 4.29392C236.448 4.40792 236.955 4.59159 237.424 4.84492C237.892 5.08559 238.304 5.38325 238.659 5.73792L238.07 7.08692C237.512 6.58025 236.917 6.21292 236.284 5.98492C235.65 5.74426 234.941 5.62392 234.156 5.62392C233.51 5.62392 232.946 5.72525 232.465 5.92792C231.996 6.13059 231.629 6.41559 231.363 6.78292C231.109 7.13759 230.983 7.55559 230.983 8.03692C230.983 8.61959 231.16 9.07559 231.515 9.40492C231.869 9.73425 232.465 9.98759 233.301 10.1649L235.296 10.5639C236.562 10.8299 237.5 11.2416 238.108 11.7989C238.728 12.3436 239.039 13.0783 239.039 14.0029C239.039 14.7629 238.836 15.4343 238.431 16.0169C238.025 16.5869 237.443 17.0366 236.683 17.3659C235.935 17.6826 235.049 17.8409 234.023 17.8409ZM241.151 21.0899V8.41692H242.842V10.5449H242.652C242.854 9.84825 243.253 9.29092 243.849 8.87292C244.444 8.45492 245.16 8.24592 245.996 8.24592C246.819 8.24592 247.535 8.44225 248.143 8.83492C248.751 9.21492 249.226 9.76592 249.568 10.4879C249.91 11.1973 250.081 12.0459 250.081 13.0339C250.081 14.0093 249.91 14.8643 249.568 15.5989C249.238 16.3209 248.763 16.8783 248.143 17.2709C247.535 17.6509 246.819 17.8409 245.996 17.8409C245.172 17.8409 244.463 17.6319 243.868 17.2139C243.272 16.7959 242.873 16.2449 242.671 15.5609H242.88V21.0899H241.151ZM245.597 16.4729C246.433 16.4729 247.098 16.1816 247.592 15.5989C248.086 15.0036 248.333 14.1486 248.333 13.0339C248.333 11.9193 248.086 11.0706 247.592 10.4879C247.098 9.90525 246.433 9.61392 245.597 9.61392C244.761 9.61392 244.096 9.90525 243.602 10.4879C243.108 11.0706 242.861 11.9193 242.861 13.0339C242.861 14.1486 243.108 15.0036 243.602 15.5989C244.096 16.1816 244.761 16.4729 245.597 16.4729ZM256.235 17.8409C255.323 17.8409 254.531 17.6446 253.86 17.2519C253.189 16.8593 252.669 16.3019 252.302 15.5799C251.935 14.8579 251.751 14.0093 251.751 13.0339C251.751 12.0586 251.935 11.2163 252.302 10.5069C252.669 9.78492 253.189 9.22759 253.86 8.83492C254.531 8.44225 255.323 8.24592 256.235 8.24592C257.147 8.24592 257.939 8.44225 258.61 8.83492C259.281 9.22759 259.801 9.78492 260.168 10.5069C260.535 11.2163 260.719 12.0586 260.719 13.0339C260.719 14.0093 260.535 14.8579 260.168 15.5799C259.801 16.3019 259.281 16.8593 258.61 17.2519C257.939 17.6446 257.147 17.8409 256.235 17.8409ZM256.235 16.4729C257.071 16.4729 257.736 16.1816 258.23 15.5989C258.724 15.0036 258.971 14.1486 258.971 13.0339C258.971 11.9193 258.724 11.0706 258.23 10.4879C257.736 9.90525 257.071 9.61392 256.235 9.61392C255.412 9.61392 254.747 9.90525 254.24 10.4879C253.746 11.0706 253.499 11.9193 253.499 13.0339C253.499 14.1486 253.746 15.0036 254.24 15.5989C254.747 16.1816 255.412 16.4729 256.235 16.4729ZM262.934 17.6699V8.41692H264.625V10.6209H264.435C264.638 9.86092 265.005 9.29092 265.537 8.91092C266.069 8.51825 266.772 8.29025 267.646 8.22692L268.235 8.16992L268.368 9.67092L267.285 9.76592C266.449 9.85459 265.803 10.1269 265.347 10.5829C264.904 11.0389 264.682 11.6659 264.682 12.4639V17.6699H262.934ZM274.231 17.8409C273.104 17.8409 272.261 17.5496 271.704 16.9669C271.147 16.3716 270.868 15.5229 270.868 14.4209V9.74692H269.063V8.41692H270.868V5.60492H272.597V8.41692H275.504V9.74692H272.597V14.2689C272.597 14.9656 272.743 15.4913 273.034 15.8459C273.325 16.2006 273.807 16.3779 274.478 16.3779C274.681 16.3779 274.877 16.3589 275.067 16.3209C275.27 16.2703 275.46 16.2196 275.637 16.1689L275.922 17.4609C275.745 17.5749 275.491 17.6636 275.162 17.7269C274.845 17.8029 274.535 17.8409 274.231 17.8409ZM280.394 17.8409C279.913 17.8409 279.438 17.7966 278.969 17.7079C278.513 17.6193 278.089 17.4926 277.696 17.3279C277.316 17.1506 276.981 16.9416 276.689 16.7009L277.202 15.5039C277.506 15.7319 277.836 15.9283 278.19 16.0929C278.545 16.2449 278.912 16.3589 279.292 16.4349C279.672 16.5109 280.052 16.5489 280.432 16.5489C281.129 16.5489 281.655 16.4223 282.009 16.1689C282.364 15.9156 282.541 15.5799 282.541 15.1619C282.541 14.8073 282.421 14.5349 282.18 14.3449C281.952 14.1423 281.591 13.9903 281.097 13.8889L279.33 13.5279C278.545 13.3506 277.95 13.0593 277.544 12.6539C277.152 12.2359 276.955 11.7039 276.955 11.0579C276.955 10.4879 277.107 9.99392 277.411 9.57592C277.728 9.14525 278.165 8.81592 278.722 8.58792C279.28 8.35992 279.919 8.24592 280.641 8.24592C281.072 8.24592 281.49 8.29025 281.895 8.37892C282.301 8.46759 282.681 8.59425 283.035 8.75892C283.39 8.92359 283.688 9.13892 283.928 9.40492L283.396 10.5829C283.156 10.3549 282.883 10.1649 282.579 10.0129C282.275 9.86092 281.959 9.74692 281.629 9.67092C281.3 9.58225 280.971 9.53792 280.641 9.53792C279.957 9.53792 279.438 9.67092 279.083 9.93692C278.741 10.2029 278.57 10.5513 278.57 10.9819C278.57 11.3113 278.672 11.5836 278.874 11.7989C279.09 12.0143 279.425 12.1726 279.881 12.2739L281.648 12.6349C282.472 12.8123 283.092 13.0973 283.51 13.4899C283.928 13.8699 284.137 14.3893 284.137 15.0479C284.137 15.6306 283.979 16.1309 283.662 16.5489C283.358 16.9669 282.921 17.2899 282.351 17.5179C281.794 17.7333 281.142 17.8409 280.394 17.8409Z" fill="black"/>
</svg>
