<svg width="36" height="36" viewBox="0 0 36 36" fill="none" xmlns="http://www.w3.org/2000/svg">
<rect x="1" y="1" width="33.6074" height="33.6074" rx="16.8037" fill="#99C0EE"/>
<rect x="1" y="1" width="33.6074" height="33.6074" rx="16.8037" stroke="black" stroke-width="2" stroke-dasharray="4 4"/>
<path d="M13.0702 13.4845C13.0702 14.0727 12.5934 14.5495 12.0052 14.5495C11.417 14.5495 10.9402 14.0727 10.9402 13.4845C10.9402 12.8963 11.417 12.4194 12.0052 12.4194C12.5934 12.4194 13.0702 12.8963 13.0702 13.4845Z" fill="black"/>
<path d="M24.6672 13.4845C24.6672 14.0727 24.1903 14.5495 23.6021 14.5495C23.0139 14.5495 22.5371 14.0727 22.5371 13.4845C22.5371 12.8963 23.0139 12.4194 23.6021 12.4194C24.1903 12.4194 24.6672 12.8963 24.6672 13.4845Z" fill="black"/>
</svg>
