<svg width="71" height="71" viewBox="0 0 71 71" fill="none" xmlns="http://www.w3.org/2000/svg">
<rect width="71" height="71" rx="35.5" fill="#B0F19B"/>
<path d="M25.5 26.375C25.5 27.6176 24.4926 28.625 23.25 28.625C22.0074 28.625 21 27.6176 21 26.375C21 25.1324 22.0074 24.125 23.25 24.125C24.4926 24.125 25.5 25.1324 25.5 26.375Z" fill="black"/>
<path d="M50 26.375C50 27.6176 48.9926 28.625 47.75 28.625C46.5074 28.625 45.5 27.6176 45.5 26.375C45.5 25.1324 46.5074 24.125 47.75 24.125C48.9926 24.125 50 25.1324 50 26.375Z" fill="black"/>
<path d="M44.2222 36.625C45.066 36.6251 45.7616 37.313 45.6362 38.1475C45.3126 40.3026 44.3077 42.3134 42.748 43.873C40.8258 45.7953 38.2185 46.875 35.5 46.875C32.7815 46.875 30.1742 45.7953 28.252 43.873C26.6923 42.3134 25.6874 40.3026 25.3638 38.1475C25.2384 37.3129 25.9344 36.625 26.7783 36.625C27.6221 36.6251 28.2898 37.3168 28.4678 38.1416C28.7572 39.4836 29.4273 40.7261 30.4131 41.7119C31.7622 43.061 33.5921 43.8188 35.5 43.8188C37.4079 43.8188 39.2378 43.061 40.5869 41.7119C41.5727 40.7261 42.2428 39.4836 42.5322 38.1416C42.7102 37.3167 43.3783 36.625 44.2222 36.625Z" fill="#231717"/>
</svg>
