<svg width="71" height="71" viewBox="0 0 71 71" fill="none" xmlns="http://www.w3.org/2000/svg">
<rect width="71" height="71" rx="35.5" fill="#F1EE9B"/>
<path d="M25.5 30C25.5 31.2426 24.4926 32.25 23.25 32.25C22.0074 32.25 21 31.2426 21 30C21 28.7574 22.0074 27.75 23.25 27.75C24.4926 27.75 25.5 28.7574 25.5 30Z" fill="black"/>
<path d="M50 30C50 31.2426 48.9926 32.25 47.75 32.25C46.5074 32.25 45.5 31.2426 45.5 30C45.5 28.7574 46.5074 27.75 47.75 27.75C48.9926 27.75 50 28.7574 50 30Z" fill="black"/>
<path d="M20.5 41.75C20.5 40.9216 21.1716 40.25 22 40.25H49C49.8284 40.25 50.5 40.9216 50.5 41.75C50.5 42.5784 49.8284 43.25 49 43.25H22C21.1716 43.25 20.5 42.5784 20.5 41.75Z" fill="black"/>
</svg>
