<svg width="71" height="71" viewBox="0 0 71 71" fill="none" xmlns="http://www.w3.org/2000/svg">
<rect width="71" height="71" rx="35.5" fill="#F09B9E"/>
<path d="M25.5 26.375C25.5 27.6176 24.4926 28.625 23.25 28.625C22.0074 28.625 21 27.6176 21 26.375C21 25.1324 22.0074 24.125 23.25 24.125C24.4926 24.125 25.5 25.1324 25.5 26.375Z" fill="black"/>
<path d="M50 26.375C50 27.6176 48.9926 28.625 47.75 28.625C46.5074 28.625 45.5 27.6176 45.5 26.375C45.5 25.1324 46.5074 24.125 47.75 24.125C48.9926 24.125 50 25.1324 50 26.375Z" fill="black"/>
<path d="M35.5 36.625C38.2185 36.625 40.8258 37.7047 42.748 39.627C44.3077 41.1866 45.3126 43.1974 45.6362 45.3525C45.7616 46.187 45.066 46.8749 44.2222 46.875C43.3783 46.875 42.7102 46.1833 42.5322 45.3584C42.2428 44.0164 41.5727 42.7739 40.5869 41.7881C39.2378 40.439 37.4079 39.6812 35.5 39.6812C33.5921 39.6812 31.7622 40.439 30.4131 41.7881C29.4273 42.7739 28.7572 44.0164 28.4678 45.3584C28.2898 46.1832 27.6221 46.8749 26.7783 46.875C25.9344 46.875 25.2384 46.1871 25.3638 45.3525C25.6874 43.1974 26.6923 41.1866 28.252 39.627C30.1742 37.7047 32.7815 36.625 35.5 36.625Z" fill="#231717"/>
</svg>
