<svg width="60" height="60" viewBox="0 0 60 60" fill="none" xmlns="http://www.w3.org/2000/svg">
<rect width="60.0016" height="60.0016" rx="30.0008" fill="#CEACF7"/>
<path d="M19.977 24.81C19.977 26.3099 18.7611 27.5258 17.2612 27.5258C15.7613 27.5258 14.5454 26.3099 14.5454 24.81C14.5454 23.3101 15.7613 22.0942 17.2612 22.0942C18.7611 22.0942 19.977 23.3101 19.977 24.81Z" fill="black"/>
<path d="M45.4559 24.81C45.4559 26.3099 44.24 27.5258 42.7401 27.5258C41.2402 27.5258 40.0243 26.3099 40.0243 24.81C40.0243 23.3101 41.2402 22.0942 42.7401 22.0942C44.24 22.0942 45.4559 23.3101 45.4559 24.81Z" fill="black"/>
<path d="M40.0945 35.9182C40.0945 36.9055 39.9649 37.8831 39.713 38.7952C39.4611 39.7073 39.092 40.536 38.6266 41.2341C38.1612 41.9322 37.6087 42.4859 37.0006 42.8637C36.3926 43.2415 35.7408 43.436 35.0827 43.436C34.4245 43.436 33.7728 43.2415 33.1647 42.8637C32.5567 42.4859 32.0042 41.9322 31.5388 41.2341C31.0734 40.536 30.7042 39.7073 30.4523 38.7952C30.2005 37.8831 30.0708 36.9055 30.0708 35.9182H40.0945Z" fill="#E2759F"/>
<path d="M18.3766 35.9182C18.3766 35.4569 18.7505 35.0829 19.2119 35.0829H40.9298C41.3911 35.0829 41.7651 35.4569 41.7651 35.9182C41.7651 36.3796 41.3911 36.7536 40.9298 36.7536H19.2119C18.7505 36.7536 18.3766 36.3796 18.3766 35.9182Z" fill="black"/>
</svg>
