<svg width="60" height="60" viewBox="0 0 60 60" fill="none" xmlns="http://www.w3.org/2000/svg">
<rect width="60.0016" height="60.0016" rx="30.0008" fill="#CEACF7"/>
<path d="M23.3936 40H37.3867C37.7252 40 38 40.2748 38 40.6133C37.9998 40.8268 37.8268 40.9998 37.6133 41H23.6064C23.2717 41 23 40.7283 23 40.3936C23.0002 40.1763 23.1763 40.0002 23.3936 40ZM15.9521 27C15.9777 27.0455 15.993 27.0965 15.9971 27.1514L15.6338 27.1758L15.2695 27.1514C15.2736 27.0965 15.2899 27.0455 15.3154 27H15.9521ZM44.6299 27C44.6555 27.0455 44.6707 27.0965 44.6748 27.1514L44.3115 27.1758L43.9473 27.1514C43.9513 27.0965 43.9676 27.0455 43.9932 27H44.6299Z" fill="black" stroke="black" stroke-width="6"/>
<ellipse cx="17.5" cy="41.5" rx="8.5" ry="7.5" fill="url(#paint0_radial_5606_6540)" stroke="#99C0EE"/>
<path d="M48 12H52.6875L48 18H53M43 17H45.8125L43 21H46M39 20H40.875L39 23H41" stroke="black" stroke-width="0.5"/>
<defs>
<radialGradient id="paint0_radial_5606_6540" cx="0" cy="0" r="1" gradientUnits="userSpaceOnUse" gradientTransform="translate(17.5 41.5) rotate(90) scale(7.5 8.5)">
<stop stop-color="#99C0EE" stop-opacity="0.2"/>
<stop offset="1" stop-color="#99C0EE"/>
</radialGradient>
</defs>
</svg>
